# xmcd
#
# Track frame offsets: 
#        150
#        14192
#        27363
#        41741
#        60530
#        73129
#        87879
#        101654
#        114996
#        125208
#        138890
#        152947
#        156342
#        167350
#        181919
#        195872
#        209339
#        223158
#        236637
#        251245
#        264407
#        287264
#        301755
#        311562
#        325943
#
# Disc length: 4430 seconds
#
# Revision: 0
# Processed by: cddbd v1.5.2PL0 Copyright (c) Steve Scherf et al.
# Submitted via: ExactAudioCopy v1.1
#
DISCID=69114c19
DTITLE=Leadbelly - American Folk and Blues Anthology
DYEAR=2013
DGENRE=Blues
TTITLE0=Midnight Special
TTITLE1=Good Morning Blues
TTITLE2=Alberta
TTITLE3=C.C. Rider
TTITLE4=Grasshoppers In My Pillow
TTITLE5=Pig Meat Papa
TTITLE6=The Boll Weevil
TTITLE7=Grey Goose
TTITLE8=John Henry
TTITLE9=Leaving Blues
TTITLE10=Roberta
TTITLE11=Dick Ligger's Holler
TTITLE12=Pretty Flowers In My Backyard
TTITLE13=Juliane Johnson
TTITLE14=Mr. Hitler
TTITLE15=Take This Hammer
TTITLE16=DeKalb Blues
TTITLE17=Ham An' Eggs
TTITLE18=Sail On Little Girl
TTITLE19=Can't You Line 'Em
TTITLE20=Shorty George
TTITLE21=Easy Rider
TTITLE22=How Long
TTITLE23=I'm On My Last Go Round
TTITLE24=Ain't Gonna Study War No More
EXTD=
EXTT0=
EXTT1=
EXTT2=
EXTT3=
EXTT4=
EXTT5=
EXTT6=
EXTT7=
EXTT8=
EXTT9=
EXTT10=
EXTT11=
EXTT12=
EXTT13=
EXTT14=
EXTT15=
EXTT16=
EXTT17=
EXTT18=
EXTT19=
EXTT20=
EXTT21=
EXTT22=
EXTT23=
EXTT24=
PLAYORDER=
